# xmcd
#
# Track frame offsets:
# 150
# 13362
# 31550
# 46590
# 63092
# 81415
# 94470
# 119757
# 132907
# 148202
# 166730
# 178084
#
# Disc length: 2619 seconds
#
#
# Revision: 0
# Processed by: cddbd v1.5PL3 Copyright (c) Steve Scherf et al.
# Submitted via: FreeRIP 2.53 
#
DISCID=a30a390c
DTITLE=Fish Heads and Rice - Something smells fishy
DYEAR=1996
DGENRE=Blues
TTITLE0=Something smells fishy
TTITLE1=Dr. Jekyl and Mr. Hide
TTITLE2=Two halves make a hole
TTITLE3=Mama was right
TTITLE4=Sittin' on go (the monopoly song)
TTITLE5=You can't get there from here
TTITLE6=Warm and tender love
TTITLE7=All messed up no place to go
TTITLE8=Count on you
TTITLE9=Chain gang
TTITLE10=Carry mail
TTITLE11=? (the question)
EXTD=Appaloosa records
EXTT0=
EXTT1=
EXTT2=
EXTT3=
EXTT4=
EXTT5=
EXTT6=
EXTT7=
EXTT8=
EXTT9=
EXTT10=
EXTT11=
PLAYORDER=
